<svg width="173" height="110" viewBox="0 0 173 110" fill="none" xmlns="http://www.w3.org/2000/svg">
<path d="M43.7873 78.2195C37.1056 77.1998 30.2629 73.8992 24.2788 68.6666C25.7547 66.1978 27.3916 63.9169 29.1895 61.8775C32.3291 69.1496 37.3471 74.9458 43.7873 78.2195ZM25.4327 43.2814C25.4059 38.8806 25.8621 33.2454 27.8209 27.2614C20.522 26.5369 13.4647 27.4224 7.29279 29.8106C6.89027 36.3582 8.12465 43.4424 11.1032 50.3656C14.8869 47.5212 21.5149 44.5158 25.4327 43.2814ZM25.6205 47.4407C22.3468 48.5677 16.2017 51.2243 12.8475 53.9614C14.6185 57.5572 18.751 63.1119 21.3271 65.8221C23.2055 62.8167 25.3254 60.1333 27.6599 57.7182C26.6134 54.4981 25.9426 51.0365 25.6205 47.4407Z" fill="#FF8137"/>
<path d="M36.4314 66.3596C32.4062 60.9123 29.9107 53.7476 29.4008 45.8046C32.1916 45.1069 34.9555 44.6508 37.6658 44.4629C34.7408 51.8423 34.2041 59.4901 36.4314 66.3596ZM48.1848 28.6576C51.2707 25.5448 55.591 21.8685 61.1993 19.0241C56.557 13.3621 50.9487 8.98811 44.8841 6.30469C39.9735 10.6518 35.841 16.5285 33.0503 23.5322C37.7194 24.1763 44.5085 26.7792 48.1848 28.6576ZM45.3672 31.7435C42.2544 30.214 36.0289 27.772 31.7086 27.3159C30.4205 31.0995 29.4008 37.969 29.3203 41.699C32.7551 40.894 36.163 40.5183 39.5173 40.4378C41.0737 37.4324 43.0326 34.5074 45.3672 31.7435Z" fill="#0075BF"/>
<path d="M39.625 52.7561C40.6447 46.0743 43.9453 39.2316 49.178 33.2476C51.6467 34.7235 53.9276 36.3604 55.967 38.1582C48.695 41.2978 42.9256 46.3427 39.625 52.7561ZM74.59 34.4015C78.9908 34.3746 84.626 34.8308 90.61 36.7897C91.3345 29.4908 90.449 22.4334 88.0607 16.2615C81.54 15.859 74.429 17.0934 67.5326 20.072C70.3502 23.8556 73.3288 30.4837 74.59 34.4015ZM70.4038 34.5893C69.2768 31.3155 66.6202 25.1705 63.8831 21.7894C60.2873 23.5604 54.7327 27.6929 52.0224 30.269C55.0278 32.1205 57.7113 34.2673 60.0995 36.6019C63.3464 35.5822 66.8081 34.9113 70.4038 34.5893Z" fill="#B7D636"/>
<path d="M56.7463 74.5455L50.0109 64.2948V74.5455H47.8105V60.0014H49.823L56.5584 70.2252V60.0014H58.7588V74.5455H56.7463ZM75.396 74.5455V60.0014H73.1956L69.0363 69.0445L64.7965 60.0014H62.5961V74.5455H64.7965V64.8047L68.2313 71.8889H69.8682L73.2225 64.8047V74.5455H75.396ZM83.0438 74.6797C86.076 74.6797 88.2764 73.0964 88.2764 70.413C88.2764 69.1787 87.8739 68.1321 87.0957 67.4344C86.4785 66.8709 85.7272 66.5489 84.3855 66.3611L82.7218 66.1196C82.0509 66.0122 81.4605 65.7707 81.0849 65.4487C80.7092 65.0999 80.5214 64.6437 80.5214 64.107C80.5214 62.8189 81.4606 61.8261 83.1779 61.8261C84.4123 61.8261 85.4588 62.0944 86.3444 62.9531L87.7666 61.5577C86.5322 60.4039 85.1637 59.894 83.2584 59.894C80.2262 59.894 78.4015 61.6382 78.4015 64.1607C78.4015 65.3414 78.7503 66.2537 79.4748 66.9514C80.1188 67.5418 81.058 67.9443 82.2387 68.1053L83.9561 68.3468C84.8148 68.481 85.1905 68.6151 85.5393 68.964C85.915 69.3128 86.1029 69.8495 86.1029 70.4667C86.1029 71.8889 85.0027 72.6939 83.0974 72.6939C81.5947 72.6939 80.4408 72.3719 79.3675 71.2986L77.8916 72.7476C79.287 74.1698 80.8434 74.6797 83.0438 74.6797ZM100.11 73.177C101.694 71.5937 101.586 69.286 101.586 67.1661C101.586 65.073 101.694 62.9263 100.11 61.3699C99.198 60.4575 97.8562 60.0014 96.3535 60.0014H91.255V74.5455H96.3535C97.8562 74.5455 99.1711 74.1161 100.11 73.177ZM98.5808 62.98C99.3321 63.8118 99.359 65.1804 99.359 67.1929C99.359 69.2055 99.3321 70.7619 98.5808 71.6206C97.9636 72.2914 97.1586 72.6134 96.112 72.6134H93.4286V62.0139H96.112C97.1586 61.9871 97.9636 62.2823 98.5808 62.98ZM109.529 74.6797C112.159 74.6797 114.225 73.0964 114.708 70.1984H112.508C112.159 71.6742 111.166 72.6939 109.556 72.6939C108.697 72.6939 107.919 72.3719 107.409 71.8084C106.685 71.0302 106.524 70.1984 106.524 67.2734C106.524 64.3485 106.685 63.5166 107.409 62.7385C107.919 62.1749 108.697 61.8529 109.556 61.8529C111.166 61.8529 112.159 62.8726 112.508 64.3485H114.762C114.252 61.4504 112.239 59.8672 109.583 59.8672C108.08 59.8672 106.765 60.4307 105.772 61.4236C104.35 62.8458 104.35 64.4558 104.35 67.2734C104.35 70.0642 104.323 71.7011 105.772 73.1233C106.712 74.1161 108.026 74.6797 109.529 74.6797ZM53.1773 87.7211V80.4759H52.0771V85.5744L48.7228 80.4759H47.7031V87.7211H48.8033V82.6226L52.1576 87.7211H53.1773ZM58.7857 87.7211V84.2595C58.7857 83.0788 58.0611 82.4884 56.6657 82.4884C55.8071 82.4884 55.2972 82.6494 54.8142 83.2398L55.485 83.8838C55.7802 83.5081 56.0486 83.3739 56.6121 83.3739C57.4171 83.3739 57.7391 83.696 57.7391 84.34V84.7157H56.3706C55.1899 84.7157 54.5995 85.3328 54.5995 86.1915C54.5995 86.6209 54.7337 87.0234 55.002 87.2917C55.324 87.6138 55.7534 87.7748 56.3974 87.7748C57.0414 87.7748 57.3903 87.6138 57.766 87.2381V87.6943H58.7857V87.7211ZM57.7391 85.8695C57.7391 86.2452 57.6586 86.4867 57.5244 86.6209C57.2561 86.8892 56.9609 86.9161 56.5584 86.9161C55.9144 86.9161 55.6192 86.6477 55.6192 86.1915C55.6192 85.7354 55.9412 85.4402 56.5584 85.4402H57.766V85.8695H57.7391ZM62.5961 87.7211V86.8356H62.1668C61.7911 86.8356 61.6032 86.6209 61.6032 86.2452V83.4544H62.5961V82.6494H61.6032V81.0662H60.5567V82.6226H59.9664V83.4276H60.5567V86.272C60.5567 87.0234 61.0129 87.7211 61.9789 87.7211H62.5961ZM63.9378 81.5492H65.038V80.449H63.9378V81.5492ZM63.9915 87.7211H65.038V82.5421H63.9915V87.7211ZM70.1634 87.1844C70.6464 86.6746 70.7805 86.0305 70.7805 85.145C70.7805 84.2863 70.6464 83.6155 70.1634 83.1056C69.8145 82.7568 69.3315 82.4884 68.607 82.4884C67.9093 82.4884 67.3994 82.7568 67.0774 83.1056C66.5944 83.6155 66.4602 84.2595 66.4602 85.145C66.4602 86.0305 66.5944 86.6746 67.0774 87.1844C67.4263 87.5332 67.9093 87.8016 68.607 87.8016C69.3315 87.7748 69.8413 87.5064 70.1634 87.1844ZM69.3852 83.7228C69.7072 84.0448 69.734 84.5815 69.734 85.145C69.734 85.7085 69.6803 86.2452 69.3852 86.5672C69.1973 86.7551 68.929 86.8624 68.6338 86.8624C68.3386 86.8624 68.0703 86.7551 67.8824 86.5672C67.5604 86.2452 67.5336 85.7085 67.5336 85.145C67.5336 84.5815 67.5873 84.0448 67.8824 83.7228C68.0703 83.535 68.3386 83.4276 68.6338 83.4276C68.929 83.4276 69.1973 83.535 69.3852 83.7228ZM76.4426 87.7211V84.4205C76.4426 83.8301 76.3084 83.3471 75.9327 82.9714C75.6375 82.6763 75.1813 82.5153 74.6715 82.5153C74.1616 82.5153 73.6518 82.7031 73.303 83.1056V82.5958H72.2833V87.7748H73.3298V84.6352C73.3298 83.8301 73.8128 83.4813 74.4032 83.4813C74.9935 83.4813 75.4497 83.8301 75.4497 84.6352V87.7748H76.4426V87.7211ZM81.8899 87.7211V84.2595C81.8899 83.0788 81.1654 82.4884 79.77 82.4884C78.9113 82.4884 78.4015 82.6494 77.9184 83.2398L78.5893 83.8838C78.8845 83.5081 79.1528 83.3739 79.7163 83.3739C80.5214 83.3739 80.8434 83.696 80.8434 84.34V84.7157H79.4748C78.2941 84.7157 77.7038 85.3328 77.7038 86.1915C77.7038 86.6209 77.8379 87.0234 78.1063 87.2917C78.4283 87.6138 78.8576 87.7748 79.5017 87.7748C80.1457 87.7748 80.4945 87.6138 80.8702 87.2381V87.6943H81.8899V87.7211ZM80.8434 85.8695C80.8434 86.2452 80.7629 86.4867 80.6287 86.6209C80.3604 86.8892 80.0652 86.9161 79.6627 86.9161C79.0186 86.9161 78.7235 86.6477 78.7235 86.1915C78.7235 85.7354 79.0455 85.4402 79.6627 85.4402H80.8702V85.8695H80.8434ZM85.5662 87.7211V86.8356H85.11C84.6807 86.8356 84.5465 86.6209 84.5465 86.2452V80.4759H83.5V86.2989C83.5 87.0502 83.9293 87.7211 84.9222 87.7211H85.5662ZM95.7632 87.7211V80.4759H94.663L92.5967 84.984L90.4768 80.4759H89.3766V87.7211H90.4768V82.8641L92.1942 86.4062H92.9993L94.663 82.8641V87.7211H95.7632ZM97.5611 81.5492H98.6613V80.449H97.5611V81.5492ZM97.5879 87.7211H98.6344V82.5421H97.5879V87.7211ZM104.511 87.7211V84.4205C104.511 83.8301 104.377 83.3471 104.001 82.9714C103.706 82.6763 103.25 82.5153 102.74 82.5153C102.23 82.5153 101.72 82.7031 101.372 83.1056V82.5958H100.352V87.7748H101.398V84.6352C101.398 83.8301 101.881 83.4813 102.472 83.4813C103.062 83.4813 103.518 83.8301 103.518 84.6352V87.7748H104.511V87.7211ZM109.636 87.1844C110.119 86.6746 110.254 86.0305 110.254 85.145C110.254 84.2863 110.119 83.6155 109.636 83.1056C109.288 82.7568 108.805 82.4884 108.08 82.4884C107.382 82.4884 106.873 82.7568 106.551 83.1056C106.068 83.6155 105.933 84.2595 105.933 85.145C105.933 86.0305 106.068 86.6746 106.551 87.1844C106.899 87.5332 107.382 87.8016 108.08 87.8016C108.778 87.7748 109.288 87.5064 109.636 87.1844ZM108.831 83.7228C109.153 84.0448 109.18 84.5815 109.18 85.145C109.18 85.7085 109.127 86.2452 108.831 86.5672C108.644 86.7551 108.375 86.8624 108.08 86.8624C107.785 86.8624 107.517 86.7551 107.329 86.5672C107.007 86.2452 106.98 85.7085 106.98 85.145C106.98 84.5815 107.034 84.0448 107.329 83.7228C107.517 83.535 107.785 83.4276 108.08 83.4276C108.375 83.4276 108.644 83.535 108.831 83.7228ZM115.325 82.9714C114.976 82.6226 114.601 82.4884 114.091 82.4884C113.501 82.4884 112.991 82.7299 112.722 83.1056V82.5421H111.703V87.7211H112.749V84.5815C112.749 83.857 113.205 83.4276 113.769 83.4276C114.118 83.4276 114.306 83.535 114.547 83.7765L115.325 82.9714ZM116.184 81.5492H117.284V80.449H116.184V81.5492ZM116.211 87.7211H117.257V82.5421H116.211V87.7211ZM121.122 87.7211V86.8356H120.692C120.316 86.8356 120.129 86.6209 120.129 86.2452V83.4544H121.122V82.6494H120.129V81.0662H119.082V82.6226H118.492V83.4276H119.082V86.272C119.082 87.0234 119.538 87.7211 120.504 87.7211H121.122ZM126.408 82.5689H125.308L124.1 86.2184L122.866 82.5689H121.766L123.563 87.4796L123.268 88.2846C123.107 88.714 122.973 88.8213 122.517 88.8213H122.249V89.7605H122.678C123.08 89.7605 123.456 89.68 123.751 89.3848C123.912 89.2238 124.02 89.036 124.127 88.7408L126.408 82.5689ZM131.855 87.7748C133.385 87.7748 134.458 86.9697 134.458 85.6549C134.458 85.0377 134.27 84.501 133.868 84.179C133.573 83.9106 133.197 83.7496 132.526 83.6423L131.694 83.5081C131.345 83.4545 131.05 83.3471 130.889 83.1593C130.701 82.9983 130.621 82.7568 130.621 82.4884C130.621 81.8444 131.077 81.3614 131.936 81.3614C132.553 81.3614 133.063 81.4956 133.519 81.9249L134.217 81.2272C133.599 80.6369 132.929 80.3954 131.963 80.3954C130.46 80.3954 129.547 81.254 129.547 82.5153C129.547 83.1056 129.708 83.5618 130.084 83.9106C130.406 84.2058 130.862 84.4205 131.453 84.501L132.311 84.6352C132.741 84.6888 132.929 84.7693 133.116 84.9303C133.304 85.0913 133.412 85.3597 133.412 85.6817C133.412 86.3794 132.848 86.7819 131.909 86.7819C131.157 86.7819 130.594 86.6209 130.057 86.0842L129.333 86.8087C129.977 87.5332 130.782 87.7748 131.855 87.7748ZM140.013 87.7211V82.5421H138.966V85.6817C138.966 86.4867 138.483 86.8356 137.893 86.8356C137.303 86.8356 136.846 86.4867 136.846 85.6817V82.5421H135.8V85.8427C135.8 86.433 135.934 86.9161 136.31 87.2917C136.605 87.5869 137.061 87.7748 137.571 87.7748C138.081 87.7748 138.591 87.5869 138.939 87.1844V87.6943H140.013V87.7211ZM145.353 87.3186C145.863 86.8087 145.943 85.9232 145.943 85.1182C145.943 84.34 145.889 83.4545 145.353 82.9446C145.058 82.6494 144.601 82.4884 144.092 82.4884C143.528 82.4884 143.126 82.6226 142.723 83.1056V82.5421H141.703V89.7873H142.75V87.1576C143.126 87.6138 143.555 87.7479 144.118 87.7479C144.628 87.7748 145.084 87.6137 145.353 87.3186ZM143.823 83.4276C144.762 83.4276 144.897 84.2326 144.897 85.145C144.897 86.0574 144.762 86.8624 143.823 86.8624C142.884 86.8624 142.75 86.0574 142.75 85.145C142.75 84.2058 142.911 83.4276 143.823 83.4276ZM151.042 87.3186C151.551 86.8087 151.632 85.9232 151.632 85.1182C151.632 84.34 151.578 83.4545 151.042 82.9446C150.746 82.6494 150.29 82.4884 149.78 82.4884C149.217 82.4884 148.814 82.6226 148.412 83.1056V82.5421H147.392V89.7873H148.439V87.1576C148.814 87.6138 149.244 87.7479 149.78 87.7479C150.317 87.7748 150.773 87.6137 151.042 87.3186ZM149.512 83.4276C150.451 83.4276 150.585 84.2326 150.585 85.145C150.585 86.0574 150.451 86.8624 149.512 86.8624C148.573 86.8624 148.439 86.0574 148.439 85.145C148.439 84.2058 148.573 83.4276 149.512 83.4276ZM155.12 87.7211V86.8356H154.664C154.235 86.8356 154.101 86.6209 154.101 86.2452V80.4759H153.054V86.2989C153.054 87.0502 153.484 87.7211 154.476 87.7211H155.12ZM156.274 81.5492H157.375V80.449H156.274V81.5492ZM156.301 87.7211H157.348V82.5421H156.301V87.7211ZM163.171 85.4402V84.984C163.171 83.5081 162.366 82.4884 160.97 82.4884C159.655 82.4884 158.77 83.4545 158.77 85.1182C158.77 87.0771 159.79 87.7748 161.104 87.7748C162.017 87.7748 162.5 87.5064 163.037 86.9697L162.366 86.3525C161.99 86.7282 161.695 86.8892 161.104 86.8892C160.273 86.8892 159.79 86.3257 159.79 85.4402H163.171ZM161.99 84.018C162.097 84.2595 162.124 84.3937 162.124 84.7157H159.79C159.79 84.3937 159.816 84.2595 159.924 84.018C160.085 83.6423 160.46 83.3739 160.943 83.3739C161.453 83.3471 161.829 83.6155 161.99 84.018ZM168.216 82.9714C167.867 82.6226 167.491 82.4884 166.981 82.4884C166.391 82.4884 165.881 82.7299 165.613 83.1056V82.5421H164.593V87.7211H165.639V84.5815C165.639 83.857 166.096 83.4276 166.659 83.4276C167.008 83.4276 167.196 83.535 167.437 83.7765L168.216 82.9714ZM52.1308 99.2598C52.909 98.4816 52.8553 97.3277 52.8553 96.2544C52.8553 95.2078 52.909 94.1345 52.1308 93.3563C51.6746 92.9001 51.0037 92.6854 50.2524 92.6854H47.7031V99.9306H50.2524C51.0037 99.9575 51.6746 99.716 52.1308 99.2598ZM51.3794 94.1613C51.7551 94.5906 51.7551 95.2615 51.7551 96.2544C51.7551 97.2472 51.7551 98.0254 51.3794 98.4548C51.0842 98.8036 50.6549 98.9378 50.145 98.9378H48.8033V93.6783H50.145C50.6549 93.6783 51.0574 93.8393 51.3794 94.1613ZM58.5441 97.6766V97.2204C58.5441 95.7445 57.7391 94.7248 56.3437 94.7248C55.0289 94.7248 54.1433 95.6908 54.1433 97.3546C54.1433 99.3135 55.163 100.011 56.4779 100.011C57.3903 100.011 57.8733 99.7428 58.41 99.2061L57.7391 98.5889C57.3634 98.9646 57.0683 99.1256 56.4779 99.1256C55.6192 99.1256 55.163 98.5621 55.163 97.6766H58.5441ZM57.3634 96.2544C57.4708 96.4959 57.4976 96.63 57.4976 96.9521H55.163C55.163 96.63 55.1899 96.4959 55.2972 96.2544C55.4582 95.8787 55.8339 95.6103 56.3169 95.6103C56.8268 95.5835 57.2024 95.8519 57.3634 96.2544ZM63.75 94.7785H62.6498L61.4422 98.4279L60.2079 94.7785H59.1077L61.0129 99.9575H61.8716L63.75 94.7785ZM68.7143 97.6766V97.2204C68.7143 95.7445 67.9093 94.7248 66.5139 94.7248C65.199 94.7248 64.3135 95.6908 64.3135 97.3546C64.3135 99.3135 65.3332 100.011 66.6481 100.011C67.5604 100.011 68.0435 99.7428 68.5801 99.2061L67.9093 98.5889C67.5336 98.9646 67.2384 99.1256 66.6481 99.1256C65.7894 99.1256 65.3332 98.5621 65.3332 97.6766H68.7143ZM67.5604 96.2544C67.6678 96.4959 67.6946 96.63 67.6946 96.9521H65.36C65.36 96.63 65.3869 96.4959 65.4942 96.2544C65.6552 95.8787 66.0309 95.6103 66.5139 95.6103C67.0238 95.5835 67.3994 95.8519 67.5604 96.2544ZM72.1759 99.9575V99.072H71.7197C71.2904 99.072 71.1562 98.8573 71.1562 98.4816V92.7122H70.1097V98.5353C70.1097 99.2866 70.539 99.9575 71.5319 99.9575H72.1759ZM76.6304 99.394C77.1134 98.8841 77.2476 98.2401 77.2476 97.3546C77.2476 96.4959 77.1134 95.825 76.6304 95.3152C76.2815 94.9663 75.7717 94.698 75.074 94.698C74.3763 94.698 73.8665 94.9663 73.5445 95.3152C73.0614 95.825 72.9273 96.469 72.9273 97.3546C72.9273 98.2401 73.0614 98.8841 73.5445 99.394C73.8933 99.7428 74.3763 100.011 75.074 100.011C75.7717 100.011 76.2815 99.7428 76.6304 99.394ZM75.8522 95.9592C76.1742 96.2812 76.201 96.8179 76.201 97.3814C76.201 97.9449 76.1474 98.4816 75.8522 98.8036C75.6644 98.9915 75.396 99.0988 75.1008 99.0988C74.8057 99.0988 74.5373 98.9915 74.3495 98.8036C74.0275 98.4816 74.0006 97.9449 74.0006 97.3814C74.0006 96.8179 74.0543 96.2812 74.3495 95.9592C74.5373 95.7714 74.8057 95.664 75.1008 95.664C75.3692 95.664 75.6375 95.7445 75.8522 95.9592ZM82.3461 99.555C82.8559 99.0451 82.9364 98.1596 82.9364 97.3546C82.9364 96.5764 82.8828 95.6908 82.3461 95.181C82.0509 94.8858 81.5947 94.7248 81.0849 94.7248C80.5214 94.7248 80.1188 94.859 79.7163 95.342V94.8053H78.6966V102.051H79.7432V99.4208C80.1188 99.877 80.5482 100.011 81.0849 100.011C81.6216 100.011 82.0509 99.8501 82.3461 99.555ZM80.8165 95.664C81.7557 95.664 81.8899 96.469 81.8899 97.3814C81.8899 98.2938 81.7557 99.0988 80.8165 99.0988C79.8773 99.0988 79.7432 98.2938 79.7432 97.3814C79.7432 96.4422 79.8773 95.664 80.8165 95.664ZM91.7112 99.9575V96.6569C91.7112 96.0665 91.5502 95.5835 91.1477 95.2078C90.8525 94.9127 90.3695 94.7516 89.8328 94.7516C89.162 94.7516 88.6253 94.9932 88.2228 95.503C87.9008 94.9932 87.3909 94.7516 86.7469 94.7516C86.237 94.7516 85.7272 94.9663 85.3783 95.342V94.8321H84.3586V100.011H85.4052V96.8716C85.4052 96.0665 85.8882 95.7177 86.4785 95.7177C87.0689 95.7177 87.5251 96.0665 87.5251 96.8716V100.011H88.5716V96.8179C88.5716 96.0665 89.0815 95.7177 89.645 95.7177C90.2353 95.7177 90.6915 96.0665 90.6915 96.8716V100.011H91.7112V99.9575ZM97.4806 97.6766V97.2204C97.4806 95.7445 96.6755 94.7248 95.2802 94.7248C93.9653 94.7248 93.0798 95.6908 93.0798 97.3546C93.0798 99.3135 94.0995 100.011 95.4143 100.011C96.3267 100.011 96.8097 99.7428 97.3464 99.2061L96.6755 98.5889C96.2999 98.9646 96.0047 99.1256 95.4143 99.1256C94.5556 99.1256 94.0995 98.5621 94.0995 97.6766H97.4806ZM96.3267 96.2544C96.434 96.4959 96.4609 96.63 96.4609 96.9521H94.1263C94.1263 96.63 94.1531 96.4959 94.2605 96.2544C94.4215 95.8787 94.7971 95.6103 95.2802 95.6103C95.79 95.5835 96.1389 95.8519 96.3267 96.2544ZM103.089 99.9575V96.6569C103.089 96.0665 102.955 95.5835 102.579 95.2078C102.284 94.9127 101.828 94.7516 101.318 94.7516C100.808 94.7516 100.298 94.9395 99.9493 95.342V94.8321H98.9296V100.011H99.9761V96.8716C99.9761 96.0665 100.459 95.7177 101.05 95.7177C101.64 95.7177 102.096 96.0665 102.096 96.8716V100.011H103.089V99.9575ZM106.926 99.9575V99.072H106.497C106.121 99.072 105.933 98.8573 105.933 98.4816V95.6908H106.926V94.8858H105.933V93.3294H104.887V94.8858H104.296V95.6908H104.887V98.5084C104.887 99.2598 105.343 99.9575 106.309 99.9575H106.926ZM113.259 100.011C114.574 100.011 115.594 99.233 115.835 97.7839H114.735C114.574 98.5084 114.064 99.0183 113.259 99.0183C112.83 99.0183 112.454 98.8573 112.186 98.5889C111.837 98.2133 111.756 97.7839 111.756 96.3349C111.756 94.8858 111.837 94.4565 112.186 94.0808C112.427 93.8125 112.83 93.6514 113.259 93.6514C114.064 93.6514 114.547 94.1613 114.735 94.8858H115.862C115.594 93.4368 114.601 92.6586 113.286 92.6586C112.535 92.6586 111.891 92.9269 111.381 93.4368C110.656 94.1613 110.683 94.9663 110.683 96.3617C110.683 97.7571 110.683 98.5621 111.381 99.2866C111.837 99.7428 112.508 100.011 113.259 100.011ZM120.692 99.394C121.175 98.8841 121.309 98.2401 121.309 97.3546C121.309 96.4959 121.175 95.825 120.692 95.3152C120.343 94.9663 119.86 94.698 119.136 94.698C118.438 94.698 117.928 94.9663 117.606 95.3152C117.123 95.825 116.989 96.469 116.989 97.3546C116.989 98.2401 117.123 98.8841 117.606 99.394C117.955 99.7428 118.438 100.011 119.136 100.011C119.833 100.011 120.343 99.7428 120.692 99.394ZM119.914 95.9592C120.236 96.2812 120.263 96.8179 120.263 97.3814C120.263 97.9449 120.209 98.4816 119.914 98.8036C119.726 98.9915 119.458 99.0988 119.163 99.0988C118.867 99.0988 118.599 98.9915 118.411 98.8036C118.089 98.4816 118.062 97.9449 118.062 97.3814C118.062 96.8179 118.116 96.2812 118.411 95.9592C118.599 95.7714 118.867 95.664 119.163 95.664C119.458 95.664 119.726 95.7445 119.914 95.9592ZM126.891 99.9575V94.7785H125.844V97.9181C125.844 98.7231 125.361 99.072 124.771 99.072C124.181 99.072 123.724 98.7231 123.724 97.9181V94.7785H122.705V98.0791C122.705 98.6694 122.839 99.1525 123.215 99.5281C123.51 99.8233 123.966 99.9843 124.476 99.9843C124.986 99.9843 125.495 99.7965 125.844 99.394V99.9038H126.891V99.9575ZM132.794 99.9575V96.6569C132.794 96.0665 132.66 95.5835 132.285 95.2078C131.989 94.9127 131.533 94.7516 131.023 94.7516C130.513 94.7516 130.004 94.9395 129.655 95.342V94.8321H128.608V100.011H129.655V96.8716C129.655 96.0665 130.138 95.7177 130.728 95.7177C131.318 95.7177 131.775 96.0665 131.775 96.8716V100.011H132.794V99.9575ZM136.471 100.011C137.195 100.011 137.678 99.7965 138.161 99.2866L137.437 98.6158C137.115 98.9646 136.846 99.0988 136.444 99.0988C136.041 99.0988 135.719 98.9378 135.478 98.6426C135.263 98.3474 135.183 97.9718 135.183 97.3814C135.183 96.791 135.263 96.4154 135.478 96.1202C135.692 95.825 136.041 95.664 136.444 95.664C136.846 95.664 137.115 95.7982 137.437 96.147L138.161 95.4493C137.678 94.9395 137.168 94.7248 136.471 94.7248C135.317 94.7248 134.163 95.4225 134.163 97.3546C134.163 99.3135 135.317 100.011 136.471 100.011ZM139.396 93.7588H140.496V92.6586H139.396V93.7588ZM139.422 99.9575H140.469V94.7785H139.422V99.9575ZM144.199 99.9575V99.072H143.743C143.313 99.072 143.179 98.8573 143.179 98.4816V92.7122H142.133V98.5353C142.133 99.2866 142.562 99.9575 143.555 99.9575H144.199Z" fill="black"/>
</svg>
